<?xml version="1.0" encoding="UTF-8" standalone="no"?>
<svg
   xmlns:dc="http://purl.org/dc/elements/1.1/"
   xmlns:cc="http://creativecommons.org/ns#"
   xmlns:rdf="http://www.w3.org/1999/02/22-rdf-syntax-ns#"
   xmlns:svg="http://www.w3.org/2000/svg"
   xmlns="http://www.w3.org/2000/svg"
   xmlns:sodipodi="http://sodipodi.sourceforge.net/DTD/sodipodi-0.dtd"
   xmlns:inkscape="http://www.inkscape.org/namespaces/inkscape"
   viewBox="0 0 30 28"
   version="1.1"
   id="svg4"
   sodipodi:docname="bicycle_parking_lockers_bikely_11.svg"
   inkscape:version="0.92.5 (2060ec1f9f, 2020-04-08)"
   width="30"
   height="28">
  <metadata
     id="metadata63">
    <rdf:RDF>
      <cc:Work
         rdf:about="">
        <dc:format>image/svg+xml</dc:format>
        <dc:type
           rdf:resource="http://purl.org/dc/dcmitype/StillImage" />
        <dc:title></dc:title>
      </cc:Work>
    </rdf:RDF>
  </metadata>
  <defs
     id="defs8" />
  <sodipodi:namedview
     id="namedview6"
     pagecolor="#ffffff"
     bordercolor="#666666"
     borderopacity="1.0"
     inkscape:pageshadow="2"
     inkscape:pageopacity="0.0"
     inkscape:pagecheckerboard="0"
     showgrid="false"
     inkscape:zoom="9.5223715"
     inkscape:cx="33.966693"
     inkscape:cy="15.432777"
     inkscape:window-width="1920"
     inkscape:window-height="1019"
     inkscape:window-x="0"
     inkscape:window-y="0"
     inkscape:window-maximized="1"
     inkscape:current-layer="svg4"
     inkscape:showpageshadow="2"
     inkscape:deskcolor="#d1d1d1" />
  <path
     d="m 1.257639,14.279071 h 16.735503 c 0.33471,0 0.597697,0.262987 0.597697,0.597697 V 26.8307 c 0,0.334709 -0.262987,0.597696 -0.597697,0.597696 H 1.257639 c -0.33470996,0 -0.59769647,-0.262987 -0.59769647,-0.597696 V 14.876768 c 0,-0.33471 0.26298651,-0.597697 0.59769647,-0.597697 z m 0.5976967,1.195393 V 26.233003 H 15.004659 V 15.474464 Z m 14.9424133,1.195394 c -0.33471,0 -0.597697,0.262986 -0.597697,0.597696 v 2.390787 c 0,0.33471 0.262987,0.597697 0.597697,0.597697 0.33471,0 0.597696,-0.262987 0.597696,-0.597697 v -2.390787 c 0,-0.33471 -0.262986,-0.597696 -0.597696,-0.597696 z M 9.517806,16.37101 h 1.087808 c 0.298847,0 0.537926,0.239078 0.537926,0.537927 v 1.94849 l 0.800912,0.800914 c 1.374704,0.131492 2.462511,1.27907 2.462511,2.689633 0,1.494243 -1.219301,2.713543 -2.713542,2.713543 -1.494242,0 -2.7254965,-1.2193 -2.7254965,-2.713543 0,-1.111715 0.6813752,-2.068029 1.6376895,-2.486416 l -0.430343,-0.442297 -2.6896337,1.530104 c 0.2510322,0.406434 0.4064334,0.884591 0.4064334,1.398609 0,1.494243 -1.2312546,2.713543 -2.725496,2.713543 -1.4942415,0 -2.7135425,-1.2193 -2.7135425,-2.713543 0,-1.49424 1.219301,-2.713542 2.7135425,-2.713542 0.2271246,0 0.4422953,0.03586 0.6455123,0.08368 L 5.3458836,18.546625 H 5.094851 c -0.7411437,0.01195 -0.7411437,-1.099761 0,-1.087808 h 2.1995235 c 0.7291897,-0.01196 0.7291897,1.099761 0,1.087808 H 6.5173688 l 0.5618349,1.386657 2.9765293,-1.69746 V 17.458817 H 9.517806 c -0.7411444,0.01195 -0.7411444,-1.099761 0,-1.087807 z m -4.3512313,4.35123 c -0.9084989,0 -1.6257347,0.717235 -1.6257347,1.625734 0,0.9085 0.7172358,1.625736 1.6257347,1.625736 0.9084986,0 1.6376884,-0.717236 1.6376884,-1.625736 0,-0.908499 -0.7291898,-1.625734 -1.6376884,-1.625734 z m 6.5268463,0 c -0.908498,0 -1.637688,0.717235 -1.637688,1.625734 0,0.9085 0.72919,1.625736 1.637688,1.625736 0.908498,0 1.625735,-0.717236 1.625735,-1.625736 0,-0.908499 -0.717237,-1.625734 -1.625735,-1.625734 z"
     id="path2"
     style="fill:#444444;stroke:none;stroke-width:1.19539332;stroke-opacity:1"
     inkscape:connector-curvature="0" />
  <circle
     style="fill:#00c700;fill-opacity:1;stroke:#444444;stroke-width:0.94233495;stroke-linejoin:bevel;stroke-dasharray:none;stroke-opacity:1"
     id="path162"
     cx="20.77947"
     cy="9.102807"
     r="8.5479279" />
</svg>
