<?xml version="1.0" encoding="UTF-8" standalone="no"?>
<svg
   viewBox="0 0 18 15"
   version="1.1"
   id="svg4"
   sodipodi:docname="bicycle_parking_lockers__bikely_11.svg"
   inkscape:version="1.2.1 (9c6d41e410, 2022-07-14)"
   width="18"
   height="15"
   xmlns:inkscape="http://www.inkscape.org/namespaces/inkscape"
   xmlns:sodipodi="http://sodipodi.sourceforge.net/DTD/sodipodi-0.dtd"
   xmlns="http://www.w3.org/2000/svg"
   xmlns:svg="http://www.w3.org/2000/svg">
  <defs
     id="defs8" />
  <sodipodi:namedview
     id="namedview6"
     pagecolor="#ffffff"
     bordercolor="#666666"
     borderopacity="1.0"
     inkscape:pageshadow="2"
     inkscape:pageopacity="0.0"
     inkscape:pagecheckerboard="0"
     showgrid="false"
     inkscape:zoom="53.866667"
     inkscape:cx="4.3719059"
     inkscape:cy="7.5185643"
     inkscape:window-width="3072"
     inkscape:window-height="1659"
     inkscape:window-x="0"
     inkscape:window-y="0"
     inkscape:window-maximized="1"
     inkscape:current-layer="svg4"
     inkscape:showpageshadow="2"
     inkscape:deskcolor="#d1d1d1" />
  <path
     d="M 0.73582534,3.6554185 H 14.735825 c 0.28,0 0.5,0.22 0.5,0.5 v 9.9999995 c 0,0.28 -0.22,0.5 -0.5,0.5 H 0.73582534 c -0.28,0 -0.5,-0.22 -0.5,-0.5 V 4.1554185 c 0,-0.28 0.22,-0.5 0.5,-0.5 z m 0.49999996,1 V 13.655418 H 12.235825 V 4.6554185 Z m 12.4999997,1 c -0.28,0 -0.5,0.22 -0.5,0.5 v 2 c 0,0.28 0.22,0.5 0.5,0.5 0.28,0 0.5,-0.22 0.5,-0.5 v -2 c 0,-0.28 -0.22,-0.5 -0.5,-0.5 z m -6.0899997,-0.25 h 0.91 c 0.25,0 0.45,0.2 0.45,0.45 v 1.63 l 0.67,0.67 c 1.1499997,0.11 2.0599997,1.07 2.0599997,2.2499995 0,1.25 -1.02,2.27 -2.2699997,2.27 -1.25,0 -2.28,-1.02 -2.28,-2.27 0,-0.9299995 0.57,-1.7299995 1.37,-2.0799995 l -0.36,-0.37 -2.25,1.28 c 0.21,0.34 0.34,0.74 0.34,1.1699995 0,1.25 -1.03,2.27 -2.28,2.27 -1.25,0 -2.27,-1.02 -2.27,-2.27 0,-1.2499995 1.02,-2.2699995 2.27,-2.2699995 0.19,0 0.37,0.03 0.54,0.07 l -0.39,-0.98 h -0.21 c -0.62,0.01 -0.62,-0.92 0,-0.91 h 1.84 c 0.61,-0.01 0.61,0.92 0,0.91 h -0.65 l 0.47,1.16 2.49,-1.42 v -0.65 h -0.45 c -0.62,0.01 -0.62,-0.92 0,-0.91 z m -3.64,3.64 c -0.76,0 -1.36,0.6 -1.36,1.3599995 0,0.76 0.6,1.36 1.36,1.36 0.76,0 1.37,-0.6 1.37,-1.36 0,-0.7599995 -0.61,-1.3599995 -1.37,-1.3599995 z m 5.46,0 c -0.76,0 -1.37,0.6 -1.37,1.3599995 0,0.76 0.61,1.36 1.37,1.36 0.7599997,0 1.3599997,-0.6 1.3599997,-1.36 0,-0.7599995 -0.6,-1.3599995 -1.3599997,-1.3599995 z"
     id="path2"
     style="fill:#444444" />
  <circle
     style="fill:#00c700;fill-opacity:1"
     id="path162"
     cx="15.231983"
     cy="2.8111222"
     r="2.7023466" />
</svg>
