<?xml version="1.0" encoding="UTF-8" standalone="no"?>
<svg
   viewBox="0 0 25 22"
   version="1.1"
   id="svg4"
   sodipodi:docname="bicycle_parking_lockers_bikely_11.svg"
   inkscape:version="1.2.1 (9c6d41e410, 2022-07-14)"
   width="25"
   height="22"
   xmlns:inkscape="http://www.inkscape.org/namespaces/inkscape"
   xmlns:sodipodi="http://sodipodi.sourceforge.net/DTD/sodipodi-0.dtd"
   xmlns="http://www.w3.org/2000/svg"
   xmlns:svg="http://www.w3.org/2000/svg">
  <defs
     id="defs8" />
  <sodipodi:namedview
     id="namedview6"
     pagecolor="#ffffff"
     bordercolor="#666666"
     borderopacity="1.0"
     inkscape:pageshadow="2"
     inkscape:pageopacity="0.0"
     inkscape:pagecheckerboard="0"
     showgrid="false"
     inkscape:zoom="38.089486"
     inkscape:cx="0.74823799"
     inkscape:cy="16.146188"
     inkscape:window-width="3072"
     inkscape:window-height="1659"
     inkscape:window-x="0"
     inkscape:window-y="0"
     inkscape:window-maximized="1"
     inkscape:current-layer="svg4"
     inkscape:showpageshadow="2"
     inkscape:deskcolor="#d1d1d1" />
  <path
     d="M 1.1599425,10.428396 H 15.159942 c 0.28,0 0.5,0.22 0.5,0.5 v 10 c 0,0.28 -0.22,0.5 -0.5,0.5 H 1.1599425 c -0.27999997,0 -0.49999997,-0.22 -0.49999997,-0.5 v -10 c 0,-0.28 0.22,-0.5 0.49999997,-0.5 z m 0.5,1 v 9 H 12.659942 v -9 z m 12.4999995,1 c -0.28,0 -0.5,0.22 -0.5,0.5 v 2 c 0,0.28 0.22,0.5 0.5,0.5 0.28,0 0.5,-0.22 0.5,-0.5 v -2 c 0,-0.28 -0.22,-0.5 -0.5,-0.5 z m -6.0899995,-0.25 h 0.91 c 0.25,0 0.45,0.2 0.45,0.45 v 1.63 l 0.6699995,0.67 c 1.15,0.11 2.06,1.07 2.06,2.25 0,1.25 -1.02,2.27 -2.2699995,2.27 -1.25,0 -2.28,-1.02 -2.28,-2.27 0,-0.93 0.57,-1.73 1.37,-2.08 l -0.36,-0.37 -2.25,1.28 c 0.21,0.34 0.34,0.74 0.34,1.17 0,1.25 -1.03,2.27 -2.28,2.27 -1.25,0 -2.27,-1.02 -2.27,-2.27 0,-1.25 1.02,-2.27 2.27,-2.27 0.19,0 0.37,0.03 0.54,0.07 l -0.39,-0.98 h -0.21 c -0.62,0.01 -0.62,-0.92 0,-0.91 h 1.84 c 0.61,-0.01 0.61,0.92 0,0.91 h -0.65 l 0.47,1.16 2.49,-1.42 v -0.65 h -0.45 c -0.62,0.01 -0.62,-0.92 0,-0.91 z m -3.64,3.64 c -0.76,0 -1.36,0.6 -1.36,1.36 0,0.76 0.6,1.36 1.36,1.36 0.76,0 1.37,-0.6 1.37,-1.36 0,-0.76 -0.61,-1.36 -1.37,-1.36 z m 5.46,0 c -0.76,0 -1.37,0.6 -1.37,1.36 0,0.76 0.61,1.36 1.37,1.36 0.7599995,0 1.3599995,-0.6 1.3599995,-1.36 0,-0.76 -0.6,-1.36 -1.3599995,-1.36 z"
     id="path2"
     style="fill:#444444;stroke:none;stroke-opacity:1" />
  <circle
     style="fill:#00c700;fill-opacity:1;stroke:#444444;stroke-width:0.679;stroke-linejoin:bevel;stroke-dasharray:none;stroke-opacity:1"
     id="path162"
     cx="18.46912"
     cy="6.5683317"
     r="6.159214" />
</svg>
