<?xml version="1.0" encoding="UTF-8" standalone="no"?>
<svg
   viewBox="0 0 21 17"
   version="1.1"
   id="svg4"
   sodipodi:docname="bicycle_parking_lockers_bikely_11.svg"
   inkscape:version="1.2.1 (9c6d41e410, 2022-07-14)"
   width="21"
   height="17"
   xmlns:inkscape="http://www.inkscape.org/namespaces/inkscape"
   xmlns:sodipodi="http://sodipodi.sourceforge.net/DTD/sodipodi-0.dtd"
   xmlns="http://www.w3.org/2000/svg"
   xmlns:svg="http://www.w3.org/2000/svg">
  <defs
     id="defs8" />
  <sodipodi:namedview
     id="namedview6"
     pagecolor="#ffffff"
     bordercolor="#666666"
     borderopacity="1.0"
     inkscape:pageshadow="2"
     inkscape:pageopacity="0.0"
     inkscape:pagecheckerboard="0"
     showgrid="false"
     inkscape:zoom="53.866667"
     inkscape:cx="4.3904703"
     inkscape:cy="7.5185643"
     inkscape:window-width="3072"
     inkscape:window-height="1659"
     inkscape:window-x="0"
     inkscape:window-y="0"
     inkscape:window-maximized="1"
     inkscape:current-layer="svg4"
     inkscape:showpageshadow="2"
     inkscape:deskcolor="#d1d1d1" />
  <path
     d="M 0.67998724,5.8072885 H 14.679987 c 0.28,0 0.5,0.22 0.5,0.5 v 9.9999995 c 0,0.28 -0.22,0.5 -0.5,0.5 H 0.67998724 c -0.28,0 -0.5,-0.22 -0.5,-0.5 V 6.3072885 c 0,-0.28 0.22,-0.5 0.5,-0.5 z m 0.49999996,1 V 15.807288 H 12.179987 V 6.8072885 Z m 12.4999998,1 c -0.28,0 -0.5,0.22 -0.5,0.5 v 1.9999995 c 0,0.28 0.22,0.5 0.5,0.5 0.28,0 0.5,-0.22 0.5,-0.5 V 8.3072885 c 0,-0.28 -0.22,-0.5 -0.5,-0.5 z m -6.0899998,-0.25 h 0.91 c 0.25,0 0.45,0.2 0.45,0.45 v 1.63 l 0.67,0.6699995 c 1.1499998,0.11 2.0599998,1.07 2.0599998,2.25 0,1.25 -1.02,2.27 -2.2699998,2.27 -1.25,0 -2.28,-1.02 -2.28,-2.27 0,-0.93 0.57,-1.73 1.37,-2.08 l -0.36,-0.37 -2.25,1.28 c 0.21,0.34 0.34,0.74 0.34,1.17 0,1.25 -1.03,2.27 -2.28,2.27 -1.25,0 -2.27,-1.02 -2.27,-2.27 0,-1.25 1.02,-2.27 2.27,-2.27 0.19,0 0.37,0.03 0.54,0.07 l -0.39,-0.9799995 h -0.21 c -0.62,0.01 -0.62,-0.92 0,-0.91 h 1.84 c 0.61,-0.01 0.61,0.92 0,0.91 h -0.65 l 0.47,1.1599995 2.49,-1.4199995 v -0.65 h -0.45 c -0.62,0.01 -0.62,-0.92 0,-0.91 z m -3.64,3.6399995 c -0.76,0 -1.36,0.6 -1.36,1.36 0,0.76 0.6,1.36 1.36,1.36 0.76,0 1.37,-0.6 1.37,-1.36 0,-0.76 -0.61,-1.36 -1.37,-1.36 z m 5.46,0 c -0.76,0 -1.37,0.6 -1.37,1.36 0,0.76 0.61,1.36 1.37,1.36 0.7599998,0 1.3599998,-0.6 1.3599998,-1.36 0,-0.76 -0.6,-1.36 -1.3599998,-1.36 z"
     id="path2"
     style="fill:#444444" />
  <circle
     style="fill:#00c700;fill-opacity:1;stroke-width:1.61"
     id="path162"
     cx="16.418541"
     cy="4.4432988"
     r="4.3507671" />
</svg>
