<?xml version="1.0" encoding="UTF-8" standalone="no"?>
<svg
   xmlns:dc="http://purl.org/dc/elements/1.1/"
   xmlns:cc="http://creativecommons.org/ns#"
   xmlns:rdf="http://www.w3.org/1999/02/22-rdf-syntax-ns#"
   xmlns:svg="http://www.w3.org/2000/svg"
   xmlns="http://www.w3.org/2000/svg"
   xmlns:sodipodi="http://sodipodi.sourceforge.net/DTD/sodipodi-0.dtd"
   xmlns:inkscape="http://www.inkscape.org/namespaces/inkscape"
   viewBox="0 0 17 17"
   height="17"
   width="17"
   version="1.1"
   id="svg874"
   sodipodi:docname="construction_11.svg"
   inkscape:version="0.92.5 (2060ec1f9f, 2020-04-08)">
  <metadata
     id="metadata880">
    <rdf:RDF>
      <cc:Work
         rdf:about="">
        <dc:format>image/svg+xml</dc:format>
        <dc:type
           rdf:resource="http://purl.org/dc/dcmitype/StillImage" />
        <dc:title>circle-11.svg</dc:title>
      </cc:Work>
    </rdf:RDF>
  </metadata>
  <defs
     id="defs878" />
  <sodipodi:namedview
     pagecolor="#ffffff"
     bordercolor="#666666"
     borderopacity="1"
     objecttolerance="10"
     gridtolerance="10"
     guidetolerance="10"
     inkscape:pageopacity="0"
     inkscape:pageshadow="2"
     inkscape:window-width="1920"
     inkscape:window-height="1019"
     id="namedview876"
     showgrid="false"
     inkscape:zoom="48.352941"
     inkscape:cx="8.5"
     inkscape:cy="8.5"
     inkscape:window-x="0"
     inkscape:window-y="0"
     inkscape:window-maximized="1"
     inkscape:current-layer="svg874" />
  <title
     id="title866">circle-11.svg</title>
  <rect
     fill="none"
     x="0"
     y="0"
     width="17"
     height="17"
     id="rect868" />
  <g
     id="g908"
     transform="matrix(1.5285212,0,0,1.5285212,-4.7199243,-4.616518)">
    <path
       id="path870"
       stroke="rgba(255,255,255,0.25)"
       style="stroke-width:2;stroke-linejoin:round;stroke-miterlimit:4"
       d="M 10,5.5 C 10,7.9853 7.9853,10 5.5,10 3.0147,10 1,7.9853 1,5.5 1,3.0147 3.0147,1 5.5,1 7.9853,1 10,3.0147 10,5.5 Z"
       transform="translate(3,3)"
       fill="rgba(255,255,255,0.25)"
       inkscape:connector-curvature="0" />
    <path
       transform="translate(3,3)"
       style="fill:#fe0001;fill-opacity:1"
       id="path872"
       d="M 10,5.5 C 10,7.9853 7.9853,10 5.5,10 3.0147,10 1,7.9853 1,5.5 1,3.0147 3.0147,1 5.5,1 7.9853,1 10,3.0147 10,5.5 Z"
       inkscape:connector-curvature="0" />
    <rect
       y="7.7141118"
       x="4.7360096"
       height="1.4890511"
       width="7.5693431"
       id="rect903"
       style="fill:#fefffe;fill-opacity:1;fill-rule:nonzero;stroke-width:1.21218312;paint-order:stroke fill markers" />
  </g>
</svg>
