<?xml version="1.0" encoding="UTF-8" standalone="no"?>
<svg
   xmlns:dc="http://purl.org/dc/elements/1.1/"
   xmlns:cc="http://creativecommons.org/ns#"
   xmlns:rdf="http://www.w3.org/1999/02/22-rdf-syntax-ns#"
   xmlns:svg="http://www.w3.org/2000/svg"
   xmlns="http://www.w3.org/2000/svg"
   xmlns:sodipodi="http://sodipodi.sourceforge.net/DTD/sodipodi-0.dtd"
   xmlns:inkscape="http://www.inkscape.org/namespaces/inkscape"
   viewBox="0 0 17 17"
   height="17"
   width="17"
   version="1.1"
   id="svg890"
   sodipodi:docname="information.svg"
   inkscape:version="0.92.5 (2060ec1f9f, 2020-04-08)">
  <metadata
     id="metadata896">
    <rdf:RDF>
      <cc:Work
         rdf:about="">
        <dc:format>image/svg+xml</dc:format>
        <dc:type
           rdf:resource="http://purl.org/dc/dcmitype/StillImage" />
        <dc:title>information-11.svg</dc:title>
      </cc:Work>
    </rdf:RDF>
  </metadata>
  <defs
     id="defs894" />
  <sodipodi:namedview
     pagecolor="#ffffff"
     bordercolor="#666666"
     borderopacity="1"
     objecttolerance="10"
     gridtolerance="10"
     guidetolerance="10"
     inkscape:pageopacity="0"
     inkscape:pageshadow="2"
     inkscape:window-width="1920"
     inkscape:window-height="1019"
     id="namedview892"
     showgrid="false"
     inkscape:zoom="34.190693"
     inkscape:cx="13.891163"
     inkscape:cy="7.1813844"
     inkscape:window-x="0"
     inkscape:window-y="0"
     inkscape:window-maximized="1"
     inkscape:current-layer="layer2" />
  <title
     id="title882">information-11.svg</title>
  <rect
     fill="none"
     x="0"
     y="0"
     width="17"
     height="17"
     id="rect884" />
  <g
     inkscape:groupmode="layer"
     id="layer1"
     inkscape:label="Layer 1">
    <circle
       style="fill-opacity:1;fill-rule:nonzero;stroke-width:0.90031648;paint-order:stroke fill markers;fill:#444444"
       id="path917"
       cx="8.4964647"
       cy="8.5327845"
       r="8.3209772" />
  </g>
  <g
     inkscape:groupmode="layer"
     id="layer2"
     inkscape:label="Layer 2">
    <path
       d="m 8.5201961,3.1786591 c -0.6628311,0 -1.2151906,0.5523594 -1.2151906,1.2151906 0,0.6628313 0.5523595,1.2151906 1.2151906,1.2151906 0.6628314,0 1.2151912,-0.5523593 1.2151912,-1.2151906 0,-0.6628312 -0.5523598,-1.2151906 -1.2151912,-1.2151906 z m -2.8710534,3.381434 -0.00121,0.8164982 c 0,0 1.6582933,-0.1146697 1.6582933,1.3929399 v 1.6570768 c 0,1.657078 -1.6582933,1.921216 -1.6582933,1.921216 l 0.00121,0.840581 h 5.7445383 l -0.0013,-0.840581 c 0,0 -1.325662,0 -1.325662,-1.657077 l 0.0013,-3.0259344 c 0,0 0,-1.1047195 -1.10472,-1.1047195 z"
       id="path888"
       inkscape:connector-curvature="0"
       style="fill:#ffffff;fill-opacity:1;stroke-width:1.10471869" />
  </g>
</svg>
