<?xml version="1.0" encoding="UTF-8" standalone="no"?>
<svg
   xmlns:dc="http://purl.org/dc/elements/1.1/"
   xmlns:cc="http://creativecommons.org/ns#"
   xmlns:rdf="http://www.w3.org/1999/02/22-rdf-syntax-ns#"
   xmlns:svg="http://www.w3.org/2000/svg"
   xmlns="http://www.w3.org/2000/svg"
   xmlns:sodipodi="http://sodipodi.sourceforge.net/DTD/sodipodi-0.dtd"
   xmlns:inkscape="http://www.inkscape.org/namespaces/inkscape"
   width="17"
   height="17"
   version="1.1"
   viewBox="0 0 12.75 12.75"
   id="svg1061"
   sodipodi:docname="stadium.svg"
   inkscape:version="0.92.5 (2060ec1f9f, 2020-04-08)">
  <metadata
     id="metadata1067">
    <rdf:RDF>
      <cc:Work
         rdf:about="">
        <dc:format>image/svg+xml</dc:format>
        <dc:type
           rdf:resource="http://purl.org/dc/dcmitype/StillImage" />
        <dc:title />
      </cc:Work>
    </rdf:RDF>
  </metadata>
  <defs
     id="defs1065" />
  <sodipodi:namedview
     pagecolor="#ffffff"
     bordercolor="#666666"
     borderopacity="1"
     objecttolerance="10"
     gridtolerance="10"
     guidetolerance="10"
     inkscape:pageopacity="0"
     inkscape:pageshadow="2"
     inkscape:window-width="1920"
     inkscape:window-height="1019"
     id="namedview1063"
     showgrid="false"
     inkscape:zoom="45.254834"
     inkscape:cx="9.1011412"
     inkscape:cy="8.6568236"
     inkscape:window-x="0"
     inkscape:window-y="0"
     inkscape:window-maximized="1"
     inkscape:current-layer="svg1061"
     units="px" />
  <path
     inkscape:connector-curvature="0"
     id="path1057"
     d="M 10.102939,5.6096676 C 9.602132,5.4001976 9.0750099,5.2988169 8.6252977,5.2266211 8.0199949,5.1303684 7.3659254,5.0767161 6.5338729,5.0573873 l -0.207052,-4e-4 L 6.3104229,3.5781417 8.0309952,3.414156 C 8.6059545,3.370397 9.4553545,3.2899864 9.4944904,3.1858317 9.4906105,3.0067382 9.000644,2.7069859 8.7343262,2.5392353 L 6.5634916,1.3156982 C 6.3600593,1.1727879 6.1252802,1.1337353 6.0780594,1.1652872 5.9979804,1.20701 5.9849544,1.3190441 5.9849544,1.3762401 l 0.01096,3.1919948 v 0.0059 0.4836366 H 5.9545067 C 5.1564679,5.0767021 4.5024279,5.1303482 3.8966689,5.2266039 2.292774,5.6585597 2.2027561,5.6258775 1.726715,6.0121509 1.5946433,6.1594781 1.6084635,6.1029179 1.679516,6.5610389 1.753437,6.9161073 2.185397,9.1685956 2.4245795,10.122115 l 0.011223,0.04537 c 0.054958,0.222091 0.1068154,0.431951 0.3270348,0.59251 0.1927353,0.139644 0.4141139,0.243792 0.7171521,0.336882 0.80113,0.246551 1.610008,0.309667 2.2962181,0.338863 0.1335266,0.0055 0.265884,0.0047 0.4001834,0.0047 l 0.1250063,-4.31e-4 0.1246188,4e-4 h 0.1257731 c 0.091725,0 0.1830659,-6.96e-4 0.2747817,-0.0047 0.6854168,-0.02919 1.4942852,-0.09231 2.2966151,-0.338467 0.3030375,-0.09347 0.5248025,-0.19721 0.7171514,-0.337249 0.2202197,-0.159762 0.2720747,-0.370027 0.3270337,-0.592117 l 0.01122,-0.04537 C 10.41971,9.1611599 11.105073,6.6481973 11.019535,6.2806069 10.982605,6.2096029 11.001485,6.2309839 10.816621,6.0554059 10.324762,5.686765 10.500883,5.7930088 10.102939,5.6096676 Z M 6.8130361,11.09917 c -0.1288804,0.0051 -0.2573736,0.0047 -0.3858571,0.0039 l -0.1261652,-4.26e-4 -0.1265514,4.02e-4 c -0.1288801,6.96e-4 -0.2573736,0.0011 -0.3850846,-0.0039 -0.1103028,-0.0047 -0.2279573,-0.01262 -0.3444526,-0.01972 L 5.4120625,9.4179209 h 1.7113647 l 0.032862,1.6615071 c -0.1153363,0.0075 -0.2329906,0.01539 -0.3432834,0.01971 z m 3.0454413,-1.059958 -0.011617,0.04615 c -0.051873,0.210649 -0.082054,0.315977 -0.1981544,0.399999 -0.1621602,0.117953 -0.35335,0.207105 -0.6203928,0.289551 -0.5209298,0.159367 -1.046852,0.235501 -1.5403575,0.278895 L 7.4550958,9.249497 C 7.4534004,9.1564139 7.3807879,9.0810507 7.2898352,9.0810507 l -2.0426787,6.964e-4 c -0.091338,0 -0.1669494,0.075756 -0.165261,0.1684478 l 0.032862,1.8043241 C 4.6209197,11.011217 4.0949574,10.935083 3.5744046,10.775714 3.3077477,10.693662 3.1161716,10.604511 2.9540116,10.486558 2.8379027,10.402139 2.8077139,10.296812 2.7558567,10.086167 l -0.011611,-0.04615 C 2.5538289,9.28103 2.2730547,7.5805872 2.1097355,6.7021012 c 0.085919,0.037475 0.1178416,0.042835 0.2037613,0.070051 0.5888644,0.4394768 1.4963321,0.7390671 2.1851246,0.8521251 0.4206925,0.033925 0.8409985,0.054041 1.2330183,0.07219 l 0.4946143,0.024062 c 0.037154,-0.00154 0.1760899,-0.00154 0.2287299,0 l 0.4787418,0.0088 c 0.463252,-0.00758 0.8017879,-0.032788 1.2439733,-0.099575 0.5785602,-0.1281421 0.7579667,-0.1974946 2.123157,-0.8521252 0.08553,-0.027218 0.161658,-0.066224 0.247191,-0.1025205 -0.16526,0.8883742 -0.504284,2.6248567 -0.6896673,3.3640824 z M 10.220512,6.3482109 C 9.6698064,6.8063346 8.6950313,7.1811734 8.2500553,7.2607682 7.8222817,7.3377188 7.5091329,7.3355394 6.917898,7.3595529 l -0.4655868,0.024063 c 0,0 -0.1989276,-0.00154 -0.2244699,0 L 5.7463838,7.3599482 C 5.3300401,7.3468901 5.1925544,7.3216834 4.5456773,7.2611645 3.775668,7.074734 3.0028899,6.8177302 2.4340682,6.4228439 2.0747628,6.1881817 2.1365418,6.12024 2.545559,5.9212733 3.0142447,5.7248228 3.5173696,5.6285723 3.9473063,5.559931 4.4521324,5.4656504 5.1068845,5.4131875 5.9891925,5.3942516 H 6.559273 c 0.7844944,0.01894 1.4250293,0.071399 2.0160275,0.1656794 0.4326821,0.078261 0.9671005,0.156105 1.4021422,0.3284797 0.6247533,0.2369606 0.2827083,0.3849106 0.2430693,0.4598002 z"
     style="fill:#000000;fill-opacity:0.57024793;fill-rule:nonzero;stroke:#242425;stroke-width:0.74893671;stroke-miterlimit:4;stroke-dasharray:none;stroke-opacity:0.60330577"
     sodipodi:nodetypes="ccccccccccccccccccccccccccsccccccccccccccccccccccccsccscccccccccccccccccccccccccccccccc" />
</svg>
